<svg width="922" height="1014" viewBox="0 0 922 1014" fill="none" xmlns="http://www.w3.org/2000/svg">
<path fill-rule="evenodd" clip-rule="evenodd" d="M39.4943 433.813V433.813C-4.15986 384.586 -11.4166 312.949 21.479 255.968L23.7498 252.032C56.6465 195.053 122.313 165.516 186.771 178.706H186.777C213.2 184.112 240.689 179.652 264.046 166.166V166.166C287.402 152.681 305.009 131.106 313.538 105.52V105.52C334.345 43.1017 392.758 0.999895 458.553 1H463.094C528.889 0.999895 587.303 43.1017 608.109 105.52V105.52C616.638 131.106 634.245 152.681 657.601 166.166V166.166C680.959 179.652 708.447 184.113 734.87 178.706H734.877C799.334 165.518 864.999 195.054 897.895 252.032L900.166 255.968C933.064 312.949 925.808 384.588 882.154 433.816V433.816C864.26 453.995 854.379 480.03 854.379 507V507C854.379 533.971 864.261 560.008 882.156 580.187V580.187C925.81 629.415 933.066 701.054 900.168 758.035L897.897 761.971C865 818.949 799.335 848.486 734.877 835.297L734.86 835.293C708.44 829.888 680.956 834.348 657.602 847.831V847.831C634.245 861.315 616.638 882.89 608.11 908.476V908.476C587.301 970.896 528.886 1013 463.088 1013H458.56C392.761 1013 334.345 970.895 313.538 908.474V908.474C305.009 882.888 287.403 861.313 264.046 847.829V847.829C240.692 834.346 213.207 829.886 186.788 835.291L186.771 835.295C122.314 848.483 56.6483 818.946 23.752 761.968L21.4807 758.032C-11.417 701.051 -4.16139 629.412 39.4931 580.184V580.184C57.3868 560.005 67.2678 533.97 67.2681 507V507C67.2688 480.029 57.3882 453.993 39.4943 433.813Z" fill="#7D00FA" stroke="#7D00FA" stroke-width="0.8" stroke-linecap="round" stroke-linejoin="round"/>
<circle cx="460.824" cy="507" r="281.111" fill="white" stroke="#FEFDFF" stroke-width="0.8" stroke-linecap="round" stroke-linejoin="round"/>
<path d="M365.49 502.283V602.612C365.49 623.695 375.848 642.968 392.245 652.396L414.136 664.983C438.91 679.228 468.07 679.228 492.844 664.983L514.735 652.396C531.132 642.968 541.49 623.695 541.49 602.612V502.283" stroke="#7D00FA" stroke-width="40" stroke-linecap="round" stroke-linejoin="round"/>
<path fill-rule="evenodd" clip-rule="evenodd" d="M308.455 469.745L414.431 530.203C439.04 544.242 467.941 544.242 492.549 530.203L598.526 469.745C608.509 464.05 614.824 452.341 614.824 439.526C614.824 426.71 608.509 415.001 598.526 409.306L492.597 348.875C467.958 334.819 439.022 334.819 414.383 348.875L308.455 409.306C298.472 415.001 292.157 426.71 292.157 439.526C292.157 452.341 298.472 464.05 308.455 469.745Z" stroke="#7D00FA" stroke-width="40" stroke-linecap="round" stroke-linejoin="round"/>
<path d="M614.824 439.533V523.867" stroke="#7D00FA" stroke-width="40" stroke-linecap="round" stroke-linejoin="round"/>
</svg>
